:SAMPLES-PER-SECOND 30
:FULLY-SPECIFIED
:DEGREES
925
root  38.4922 37.7055 5.44852 71.9828 87.7694 79.5768
RightUpLeg  14.9023 -10.9027 -3.68617
RightLeg  20.4954 -1.4655 -0.728969
RightFoot  -24.7208 -0.00811606 1.36575
RightToes  -5.8209e-011 0 -3.6325e-017
Spine  11.1954 -0.00688245 9.25793
Spine1  14.6297 1.79783 -2.79952
HEad  -12.5726 13.0113 9.51469
LeftShoulder1  0.0919716 3.28526 -36.085
LeftArm  -3.00058 42.5235 -38.5746
LeftForeArm  10.6168 -3.13921 -8.49111
LeftHand  0.0218968 10.279 1.7909
RightShoulder  -0.899981 -5.83389 32.0043
RightArm  44.1865 -29.5252 57.4246
RightForeArm  -63.0828 57.3452 168.231
RightHand  -1.53083 -31.7933 5.5815
LeftUpLeg  -17.5753 6.33897 3.23758
LeftLeg  6.093 -2.13072 -1.15385
LeftFoot  -0.0169074 1.11287 -11.1976
LeftToes  -8.31281e-010 4.41007e-011 3.74621e-011
926
root  38.0156 38.0164 5.48296 69.3112 87.0612 76.2526
RightUpLeg  13.9948 -11.2227 -4.49214
RightLeg  19.0514 -0.393715 -0.0536395
RightFoot  -23.0792 -0.0312316 1.21246
RightToes  -5.8209e-011 0 -3.6325e-017
Spine  9.47512 0.207748 10.1408
Spine1  14.8426 2.23421 -3.44489
HEad  -11.45 12.3653 10.2993
LeftShoulder1  -0.125892 3.7927 -37.1798
LeftArm  -0.576344 36.0732 -34.5274
LeftForeArm  9.4154 -2.55581 -9.2182
LeftHand  0.055032 9.95053 2.65046
RightShoulder  -0.74383 -5.49557 30.6533
RightArm  44.3789 -29.7137 57.5622
RightForeArm  -62.8162 56.9167 168.435
RightHand  -1.63599 -31.7201 6.03562
LeftUpLeg  -17.9677 7.01489 2.37355
LeftLeg  12.3212 -3.94173 -0.956366
LeftFoot  -0.236462 1.01381 -10.3974
LeftToes  -8.31281e-010 4.41007e-011 3.74621e-011
927
root  37.5446 38.2269 5.47801 59.9753 86.3616 65.9706
RightUpLeg  12.4889 -11.6285 -5.21668
RightLeg  18.2878 1.1219 0.732681
RightFoot  -22.0285 -0.0758944 0.78763
RightToes  -5.8209e-011 0 -3.6325e-017
Spine  8.28235 0.658681 11.1651
Spine1  14.0679 2.87036 -3.90941
HEad  -10.2087 11.5107 11.3768
LeftShoulder1  -0.340988 4.27816 -37.8661
LeftArm  -0.813558 29.5364 -32.4206
LeftForeArm  7.96978 -2.35567 -9.00532
LeftHand  0.0222489 9.67779 1.9038
RightShoulder  -0.639708 -5.27898 29.3229
RightArm  45.3928 -29.1466 57.1283
RightForeArm  -64.5591 56.6196 168.67
RightHand  -1.78499 -32.4526 6.52051
LeftUpLeg  -18.633 6.2393 2.25631
LeftLeg  19.2013 -3.57787 -1.02874
LeftFoot  -0.301418 0.944968 -9.74221
LeftToes  -8.31281e-010 4.41007e-011 3.74621e-011
928
root  37.0868 38.3567 5.43999 49.8609 85.6267 55.5021
RightUpLeg  11.6152 -11.8247 -5.78813
RightLeg  17.5891 2.4874 1.38454
RightFoot  -21.4346 -0.0958184 0.554822
RightToes  -5.8209e-011 0 -3.6325e-017
Spine  8.4433 0.694471 12.7515
Spine1  12.2074 3.54312 -5.51882
HEad  -8.40724 11.5083 12.1119
LeftShoulder1  -0.448631 4.54353 -36.9389
LeftArm  -1.8501 24.1495 -32.1768
LeftForeArm  4.26071 -3.07816 -8.67359
LeftHand  0.0163985 8.94593 2.11942
RightShoulder  -0.625845 -5.25641 28.984
RightArm  47.6871 -27.191 55.8396
RightForeArm  -57.9734 55.6381 168.793
RightHand  -2.51647 -30.1565 10.2866
LeftUpLeg  -18.4023 4.77605 2.61483
LeftLeg  26.0385 -3.23798 -1.40293
LeftFoot  -0.936232 0.873367 -9.51954
LeftToes  -8.31281e-010 4.41007e-011 3.74621e-011
929
root  36.6244 38.4156 5.38844 40.6029 85.3196 45.9846
RightUpLeg  10.7338 -11.8342 -5.59752
RightLeg  17.154 3.16008 1.80045
RightFoot  -20.9207 -0.13376 0.0960511
RightToes  -5.8209e-011 0 -3.6325e-017
Spine  8.42931 0.498287 14.2767
Spine1  10.9299 3.72797 -6.27817
HEad  -6.64173 11.9042 11.761
LeftShoulder1  -0.57284 4.83245 -36.8075
LeftArm  -3.17207 17.8641 -32.4753
LeftForeArm  1.32014 -3.74986 -8.35309
LeftHand  0.0900325 8.6091 4.60202
RightShoulder  -0.564725 -5.0872 28.8173
RightArm  49.9483 -23.6702 54.2099
RightForeArm  -63.7736 55.6773 169.096
RightHand  -3.24299 -32.4804 12.2705
LeftUpLeg  -18.0944 3.43996 3.2069
LeftLeg  32.8061 -3.3194 -1.96247
LeftFoot  -1.7671 0.787792 -9.25887
LeftToes  -8.31281e-010 4.41007e-011 3.74621e-011
930
root  36.2002 38.4195 5.32266 33.6858 85.3817 39.009
RightUpLeg  9.94356 -12.1122 -5.34113
RightLeg  17.2778 3.75173 2.3595
RightFoot  -20.7506 -0.139475 0.0110223
RightToes  -5.8209e-011 0 -3.6325e-017
Spine  7.67257 0.326534 14.7574
Spine1  11.3422 3.31637 -4.81214
HEad  -6.04506 12.6164 11.8928
LeftShoulder1  -0.711765 5.1118 -38.013
LeftArm  -4.33052 10.337 -32.8247
LeftForeArm  -0.762698 -4.24595 -8.0804
LeftHand  0.0685707 8.16711 4.46061
RightShoulder  -0.438668 -4.78107 27.4547
RightArm  51.2071 -18.7973 53.7939
RightForeArm  -67.0935 55.7892 169.209
RightHand  -3.60699 -32.1664 13.8776
LeftUpLeg  -17.3785 1.73929 3.84595
LeftLeg  39.0282 -3.14275 -2.3629
LeftFoot  -2.28141 0.652518 -8.06114
LeftToes  -8.31281e-010 4.41007e-011 3.74621e-011
931
root  35.7868 38.4219 5.25172 26.6767 85.7102 31.6984
RightUpLeg  8.81731 -12.1527 -4.64278
RightLeg  17.5449 3.67668 2.68316
RightFoot  -20.3902 -0.139555 -0.0186437
RightToes  -5.8209e-011 0 -3.6325e-017
Spine  6.88877 -0.147619 15.3132
Spine1  11.364 2.71283 -4.00112
HEad  -4.64941 13.7272 11.0884
LeftShoulder1  -0.61735 4.92466 -37.1506
LeftArm  -6.08188 4.26829 -34.9459
LeftForeArm  -1.26598 -5.33712 -7.46694
LeftHand  0.0709718 7.77347 5.1373
RightShoulder  -0.417555 -4.72158 27.3113
RightArm  53.4397 -12.6282 53.1161
RightForeArm  -66.4101 56.0542 169.05
RightHand  -4.13822 -31.3145 16.5756
LeftUpLeg  -16.7651 0.398812 4.52098
LeftLeg  44.1955 -2.69097 -2.41285
LeftFoot  -2.34213 0.571129 -7.07529
LeftToes  -8.31281e-010 4.41007e-011 3.74621e-011
932
root  35.4217 38.4523 5.2069 23.5273 86.1673 28.2111
RightUpLeg  7.84499 -11.9392 -3.92262
RightLeg  17.5347 3.11996 2.6539
RightFoot  -19.8946 -0.117935 0.223289
RightToes  -5.8209e-011 0 -3.6325e-017
Spine  5.90568 -0.623376 14.7382
Spine1  11.5597 1.7669 -2.3887
HEad  -2.82887 14.9803 10.0991
LeftShoulder1  -0.360887 4.36843 -35.5332
LeftArm  -7.04016 -0.841625 -37.4173
LeftForeArm  -2.06653 -6.95721 -7.16606
LeftHand  0.0506766 7.28022 5.13932
RightShoulder  -0.350273 -4.54042 26.7333
RightArm  55.117 -6.7673 53.6519
RightForeArm  -65.7128 56.3098 168.892
RightHand  -4.53713 -29.4143 19.7851
LeftUpLeg  -16.0201 -0.587359 4.88758
LeftLeg  47.9656 -2.10806 -2.08815
LeftFoot  -2.46127 0.557421 -6.98592
LeftToes  -8.31281e-010 4.41007e-011 3.74621e-011
933
root  35.1136 38.5304 5.16266 23.1147 86.469 27.0381
RightUpLeg  6.66049 -11.8214 -3.54519
RightLeg  17.111 2.77255 2.81373
RightFoot  -19.2339 -0.0997971 0.439791
RightToes  -5.8209e-011 0 -3.6325e-017
Spine  5.00142 -1.00491 13.6241
Spine1  11.0276 0.779618 -0.823127
HEad  -0.908082 15.8572 10.7666
LeftShoulder1  -0.162849 3.9126 -33.9281
LeftArm  -7.06972 -4.51381 -39.3268
LeftForeArm  -1.42705 -10.5344 -6.81518
LeftHand  0.0201305 6.49759 4.96615
RightShoulder  -0.317579 -4.45298 26.1779
RightArm  56.7159 -1.54436 54.7724
RightForeArm  -64.5877 56.8677 168.556
RightHand  -4.51782 -26.741 22.2284
LeftUpLeg  -15.5657 -1.02069 4.94123
LeftLeg  50.2467 -1.34156 -1.30165
LeftFoot  -2.44624 0.512246 -6.39189
LeftToes  -8.31281e-010 4.41007e-011 3.74621e-011
934
root  34.8395 38.6353 5.08476 26.2279 86.1776 29.4657
RightUpLeg  5.67703 -11.9037 -3.83902
RightLeg  16.5339 3.17878 3.0175
RightFoot  -18.6794 -0.0726952 0.841616
RightToes  -5.8209e-011 0 -3.6325e-017
Spine  5.10182 -1.07143 12.2959
Spine1  9.5928 0.271624 0.568484
HEad  0.590701 16.4911 11.4844
LeftShoulder1  0.0281505 3.42392 -32.4682
LeftArm  -4.79733 -7.11308 -40.8667
LeftForeArm  0.982066 -16.0187 -5.81418
LeftHand  -0.0207308 5.58507 3.91949
RightShoulder  -0.202186 -4.12036 25.1685
RightArm  57.4787 1.70366 56.5741
RightForeArm  -68.2767 58.0749 168.12
RightHand  -4.44278 -26.1519 22.52
LeftUpLeg  -15.039 -0.45452 4.54191
LeftLeg  51.2076 -0.960298 -0.843009
LeftFoot  -2.81169 0.461862 -5.96499
LeftToes  -8.31281e-010 4.41007e-011 3.74621e-011
